<svg width="1067" height="462" viewBox="0 0 1067 462" fill="none" xmlns="http://www.w3.org/2000/svg">
<rect x="1" y="1" width="1066" height="461" rx="10" fill="#ABB4FF"/>
<path d="M1 462V1.19409M24.1681 462V1.19409M47.3362 462V1.19409M70.5044 462V1.19409M93.6725 462V1.19409M116.841 462V1.19409M140.009 462V1.19409M163.177 462V1.19409M186.345 462V1.19409M209.513 462V1.19409M1.26327 1L1056 1.5M1.26327 15.751H1067M1.26327 30.5019H1067M1.26327 45.2529H1067M1.26327 60.0039H1067M1.26327 74.7549H1067M1.26327 89.5058H1067M1.26327 104.257H1067M1.26327 119.008H1067M1.26327 133.759H1067M1.26327 148.51H1067M1.26327 163.261H1067M1.26327 178.012H1067M1.26327 192.763H1067M1.26327 207.514H1067M1.26327 222.265H1067M1.26327 237.016H1067M1.26327 251.767H1067M1.26327 266.518H1067M1.26327 281.268H1067M1.26327 296.02H1067M1.26327 310.77H1067M1.26327 325.521H1067M1.26327 340.272H1067M1.26327 355.023H1067M1.26327 369.774H1067M1.26327 384.525H1067M1.26327 399.276H1067M1.26327 414.027H1067M1.26327 428.778H1067M1.26327 443.529H1067M1.26327 458.28H1063M232.681 462V1.19409M255.849 462V1.19409M279.017 462V1.19409M302.186 462V1.19409M325.354 462V1.19409M348.522 462V1.19409M371.69 462V1.19409M394.858 462V1.19409M418.026 462V1.19409M441.194 462V1.19409M464.362 462V1.19409M487.53 462V1.19409M510.699 462V1.19409M533.867 462V1.19409M557.035 462V1.19409M580.203 462V1.19409M603.371 462V1.19409M626.539 462V1.19409M649.707 462V1.19409M672.875 462V1.19409M696.044 462V1.19409M719.212 462V1.19409M742.38 462V1.19409M765.548 462V1.19409M788.716 462V1.19409M811.884 462V1.19409M835.052 462V1.19409M858.22 462V1.19409M881.388 462V1.19409M904.557 462V1.19409M927.725 462V1.19409M950.893 462V1.19409M974.061 462V1.19409M997.229 462V1.19409M1020.4 462V1.19409M1043.57 462V1.19409M1066.5 453.338V10.5" stroke="url(#paint0_linear_425_603)" stroke-width="0.711285"/>
<defs>
<linearGradient id="paint0_linear_425_603" x1="478.504" y1="223.898" x2="1049.85" y2="236.09" gradientUnits="userSpaceOnUse">
<stop offset="0.0526" stop-color="#436DFF" stop-opacity="0"/>
<stop offset="0.499743" stop-color="#969DDB"/>
<stop offset="1" stop-color="#AEB6FF"/>
</linearGradient>
</defs>
</svg>
