<svg width="15" height="13" viewBox="0 0 15 13" fill="none" xmlns="http://www.w3.org/2000/svg">
<path d="M9.45114 0.893291V2.58532C9.45114 3.38156 9.63362 4.06169 9.99856 4.62571C10.3801 5.20632 10.9192 5.59614 11.6159 5.7952L0.0703125 5.7952L0.0703125 7.78582L11.6159 7.78582C10.9192 7.98489 10.3801 8.36643 9.99856 8.93044C9.63362 9.51103 9.45114 10.1995 9.45114 10.9957V12.6877H11.5911V11.2197C11.5911 10.1912 11.8648 9.35345 12.4122 8.70649C12.9596 8.05953 13.7227 7.73606 14.7014 7.73606H15V5.84497H14.7014C13.7227 5.84497 12.9596 5.52148 12.4122 4.87454C11.8648 4.22758 11.5911 3.38987 11.5911 2.36137V0.893291H9.45114Z" fill="black"/>
</svg>
