<svg width="179" height="48" viewBox="0 0 179 48" fill="none" xmlns="http://www.w3.org/2000/svg">
<path d="M13.835 29.7077L19.821 21.9297L26.649 27.2897L32.507 19.7297" stroke="white" stroke-width="1.5" stroke-linecap="round" stroke-linejoin="round"/>
<path fill-rule="evenodd" clip-rule="evenodd" d="M39.3342 4.69995C41.4582 4.69995 43.1782 6.41995 43.1782 8.54395C43.1782 10.666 41.4582 12.388 39.3342 12.388C37.2102 12.388 35.4902 10.666 35.4902 8.54395C35.4902 6.41995 37.2102 4.69995 39.3342 4.69995Z" stroke="white" stroke-width="1.5" stroke-linecap="round" stroke-linejoin="round"/>
<path d="M41.5114 18.538C41.7774 20.328 41.8994 22.344 41.8994 24.606C41.8994 38.482 37.2754 43.106 23.3994 43.106C9.52541 43.106 4.89941 38.482 4.89941 24.606C4.89941 10.732 9.52541 6.10596 23.3994 6.10596C25.6194 6.10596 27.6014 6.22396 29.3654 6.47996" stroke="white" stroke-width="1.5" stroke-linecap="round" stroke-linejoin="round"/>
<path d="M56.774 32.5V17.76H52.242V16.11H63.022V17.76H58.534V32.5H56.774ZM67.3938 32.5V16.11H73.0258C74.0965 16.11 75.0351 16.3227 75.8418 16.748C76.6485 17.1587 77.2718 17.7453 77.7118 18.508C78.1665 19.256 78.3938 20.1287 78.3938 21.126C78.3938 22.2847 78.0858 23.2747 77.4698 24.096C76.8685 24.9173 76.0471 25.4967 75.0058 25.834L78.8338 32.5H76.7658L72.7618 25.438L73.9498 26.12H69.1538V32.5H67.3938ZM69.1538 24.47H73.1138C73.8178 24.47 74.4338 24.338 74.9618 24.074C75.4898 23.7953 75.9005 23.4067 76.1938 22.908C76.4871 22.3947 76.6338 21.7933 76.6338 21.104C76.6338 20.4147 76.4871 19.8207 76.1938 19.322C75.9005 18.8233 75.4898 18.442 74.9618 18.178C74.4338 17.8993 73.8178 17.76 73.1138 17.76H69.1538V24.47ZM83.6876 32.5V16.11H94.2476V17.76H85.4476V23.458H93.8076V25.108H85.4476V30.85H94.2476V32.5H83.6876ZM99.3583 32.5V16.11H100.898L110.512 29.904H109.918V16.11H111.678V32.5H110.138L100.524 18.618H101.118V32.5H99.3583ZM117.757 32.5V16.11H123.147C124.775 16.11 126.191 16.4473 127.393 17.122C128.596 17.782 129.527 18.728 130.187 19.96C130.847 21.1773 131.177 22.622 131.177 24.294C131.177 25.9513 130.847 27.396 130.187 28.628C129.527 29.86 128.596 30.8133 127.393 31.488C126.191 32.1627 124.775 32.5 123.147 32.5H117.757ZM119.517 30.85H123.147C124.409 30.85 125.501 30.586 126.425 30.058C127.349 29.5153 128.061 28.7527 128.559 27.77C129.073 26.7873 129.329 25.6287 129.329 24.294C129.329 22.9593 129.073 21.808 128.559 20.84C128.046 19.8573 127.327 19.102 126.403 18.574C125.479 18.0313 124.394 17.76 123.147 17.76H119.517V30.85ZM136.286 32.5V16.11H138.046V32.5H136.286ZM144.115 32.5V16.11H145.655L155.269 29.904H154.675V16.11H156.435V32.5H154.895L145.281 18.618H145.875V32.5H144.115ZM169.994 32.764C168.835 32.764 167.772 32.5587 166.804 32.148C165.836 31.7227 164.992 31.136 164.274 30.388C163.57 29.6253 163.02 28.7307 162.624 27.704C162.228 26.6773 162.03 25.548 162.03 24.316C162.03 23.084 162.228 21.9547 162.624 20.928C163.02 19.9013 163.57 19.0067 164.274 18.244C164.992 17.4813 165.836 16.8947 166.804 16.484C167.772 16.0587 168.835 15.846 169.994 15.846C171.108 15.846 172.106 16.044 172.986 16.44C173.88 16.836 174.628 17.3493 175.23 17.98C175.846 18.596 176.286 19.2487 176.55 19.938L174.966 20.708C174.555 19.7107 173.924 18.926 173.074 18.354C172.223 17.782 171.196 17.496 169.994 17.496C168.791 17.496 167.72 17.782 166.782 18.354C165.843 18.926 165.11 19.7253 164.582 20.752C164.054 21.764 163.79 22.952 163.79 24.316C163.79 25.6653 164.054 26.8533 164.582 27.88C165.11 28.9067 165.843 29.706 166.782 30.278C167.72 30.8353 168.791 31.114 169.994 31.114C171.064 31.114 172.025 30.8793 172.876 30.41C173.741 29.9407 174.423 29.3027 174.922 28.496C175.42 27.6747 175.67 26.736 175.67 25.68V24.778L176.462 25.57H169.994V24.03H177.43V25.394C177.43 26.4647 177.239 27.4547 176.858 28.364C176.476 29.2587 175.948 30.036 175.274 30.696C174.599 31.356 173.807 31.8693 172.898 32.236C172.003 32.588 171.035 32.764 169.994 32.764Z" fill="white"/>
</svg>
