<svg width="122" height="144" viewBox="0 0 122 144" fill="none" xmlns="http://www.w3.org/2000/svg">
<rect width="122" height="144" fill="white"/>
<path d="M22 30C25.866 30 29 26.866 29 23C29 19.134 25.866 16 22 16C18.134 16 15 19.134 15 23C15 26.866 18.134 30 22 30Z" stroke="black" stroke-width="2" stroke-linecap="round" stroke-linejoin="round"/>
<path d="M18.21 28.89L17 38L22 35L27 38L25.79 28.88" stroke="black" stroke-width="2" stroke-linecap="round" stroke-linejoin="round"/>
<path d="M10.936 98H12.704V88.315H10.936V98ZM14.3069 98H16.0749V91.669L20.6769 98H22.0679V88.315H20.2999V94.529L15.6849 88.315H14.3069V98ZM25.3986 98H27.1796V89.875H29.6496V88.315H22.8896V89.875H25.3986V98ZM30.4685 98H36.9035V96.44H32.2365V93.918H36.6435V92.358H32.2365V89.875H36.9035V88.315H30.4685V98ZM37.9399 98H39.7079V94.425H41.3719L43.3739 98H45.3759L43.1529 94.113C44.2319 93.671 44.9079 92.709 44.9079 91.37C44.9079 89.407 43.5169 88.315 41.5409 88.315H37.9399V98ZM39.7079 92.865V89.875H41.5669C42.5159 89.875 43.1399 90.46 43.1399 91.37C43.1399 92.28 42.5159 92.865 41.5669 92.865H39.7079ZM46.2747 98H48.0427V91.669L52.6447 98H54.0357V88.315H52.2677V94.529L47.6527 88.315H46.2747V98ZM54.8574 98H56.7684L57.4704 95.92H61.2144L61.9034 98H63.8274L60.4864 88.315H58.1984L54.8574 98ZM57.9774 94.36L59.3424 90.278L60.7074 94.36H57.9774ZM65.7138 98H67.4948V89.875H69.9648V88.315H63.2048V89.875H65.7138V98ZM70.7837 98H72.5517V88.315H70.7837V98ZM78.9256 98.156C81.7986 98.156 83.9956 96.011 83.9956 93.151C83.9956 90.291 81.7986 88.159 78.9256 88.159C76.0526 88.159 73.8686 90.291 73.8686 93.151C73.8686 96.011 76.0656 98.156 78.9256 98.156ZM78.9256 96.544C77.0406 96.544 75.6366 95.114 75.6366 93.151C75.6366 91.201 77.0406 89.771 78.9256 89.771C80.8106 89.771 82.2146 91.201 82.2146 93.151C82.2146 95.114 80.8106 96.544 78.9256 96.544ZM85.3077 98H87.0757V91.669L91.6777 98H93.0687V88.315H91.3007V94.529L86.6857 88.315H85.3077V98ZM93.8904 98H95.8014L96.5034 95.92H100.247L100.936 98H102.86L99.5194 88.315H97.2314L93.8904 98ZM97.0104 94.36L98.3754 90.278L99.7404 94.36H97.0104ZM103.678 98H109.593V96.44H105.446V88.315H103.678V98ZM11.001 113H12.535V105.98L15.603 110.27H15.759L18.84 106.058V113H20.361V103.315H18.931L15.707 107.865L12.431 103.315H11.001V113ZM22.1033 113H28.4863V111.635H23.6373V108.827H28.2263V107.462H23.6373V104.68H28.4863V103.315H22.1033V113ZM29.6509 113H31.1849V105.98L34.2529 110.27H34.4089L37.4899 106.058V113H39.0109V103.315H37.5809L34.3569 107.865L31.0809 103.315H29.6509V113ZM45.4592 113.156C48.2672 113.156 50.4512 111.024 50.4512 108.151C50.4512 105.278 48.2802 103.159 45.4592 103.159C42.6512 103.159 40.4672 105.265 40.4672 108.151C40.4672 111.037 42.6512 113.156 45.4592 113.156ZM45.4592 111.752C43.4572 111.752 42.0012 110.192 42.0012 108.151C42.0012 106.11 43.4572 104.55 45.4592 104.55C47.4742 104.55 48.9302 106.11 48.9302 108.151C48.9302 110.192 47.4612 111.752 45.4592 111.752ZM51.9063 113H53.4403V109.36H55.3253L57.3793 113H59.1213L56.8853 109.1C58.0163 108.671 58.7313 107.696 58.7313 106.344C58.7313 104.446 57.3793 103.315 55.4293 103.315H51.9063V113ZM53.4403 107.995V104.68H55.4553C56.5083 104.68 57.1973 105.317 57.1973 106.331C57.1973 107.345 56.5083 107.995 55.4553 107.995H53.4403ZM62.4822 113H64.0032V108.632L67.3052 103.315H65.5762L63.2362 107.124L60.8962 103.315H59.1672L62.4822 108.632V113ZM10.143 128H11.781L12.535 125.829H16.474L17.215 128H18.853L15.447 118.315H13.549L10.143 128ZM12.977 124.464L14.498 120.018L16.006 124.464H12.977ZM20.8105 128H22.3315V119.68H24.8665V118.315H18.2365V119.68H20.8105V128ZM25.7535 128H27.2875V123.944H31.7725V128H33.2935V118.315H31.7725V122.579H27.2875V118.315H25.7535V128ZM35.0403 128H41.4233V126.635H36.5743V123.827H41.1633V122.462H36.5743V119.68H41.4233V118.315H35.0403V128ZM42.588 128H48.308V126.635H44.122V118.315H42.588V128ZM49.3358 128H55.7188V126.635H50.8698V123.827H55.4588V122.462H50.8698V119.68H55.7188V118.315H49.3358V128ZM58.5994 128H60.1204V119.68H62.6554V118.315H56.0254V119.68H58.5994V128ZM63.5423 128H69.9253V126.635H65.0763V123.827H69.6653V122.462H65.0763V119.68H69.9253V118.315H63.5423V128Z" fill="black"/>
</svg>
