<svg width="121" height="144" viewBox="0 0 121 144" fill="none" xmlns="http://www.w3.org/2000/svg">
<rect width="121" height="144" fill="#12FF9C"/>
<g clip-path="url(#clip0_406_745)">
<path d="M22 30.5C25.866 30.5 29 27.366 29 23.5C29 19.634 25.866 16.5 22 16.5C18.134 16.5 15 19.634 15 23.5C15 27.366 18.134 30.5 22 30.5Z" stroke="black" stroke-width="2" stroke-linecap="round" stroke-linejoin="round"/>
<path d="M18.21 29.39L17 38.5L22 35.5L27 38.5L25.79 29.38" stroke="black" stroke-width="2" stroke-linecap="round" stroke-linejoin="round"/>
</g>
<path d="M11.079 88.5V78.815H12.249L15.876 83.976H15.278L18.879 78.815H20.049V88.5H18.762V80.427L19.217 80.57L15.616 85.64H15.512L11.95 80.57L12.353 80.427V88.5H11.079ZM21.9401 88.5V78.815H28.2451V79.985H23.2141V83.053H27.9851V84.223H23.2141V87.33H28.2451V88.5H21.9401ZM29.5639 88.5V78.815H30.7339L34.3609 83.976H33.7629L37.3639 78.815H38.5339V88.5H37.2469V80.427L37.7019 80.57L34.1009 85.64H33.9969L30.4349 80.57L30.8379 80.427V88.5H29.5639ZM45.053 88.656C44.3683 88.656 43.727 88.5347 43.129 88.292C42.531 88.0407 42.0066 87.6897 41.556 87.239C41.114 86.7883 40.7673 86.2597 40.516 85.653C40.2646 85.0377 40.139 84.3703 40.139 83.651C40.139 82.923 40.2646 82.2557 40.516 81.649C40.7673 81.0423 41.114 80.5137 41.556 80.063C42.0066 79.6123 42.5266 79.2657 43.116 79.023C43.714 78.7803 44.3596 78.659 45.053 78.659C45.7463 78.659 46.3876 78.7847 46.977 79.036C47.575 79.2787 48.095 79.6253 48.537 80.076C48.9876 80.518 49.3386 81.0423 49.59 81.649C49.85 82.2557 49.98 82.923 49.98 83.651C49.98 84.3703 49.85 85.0377 49.59 85.653C49.3386 86.2597 48.9876 86.7883 48.537 87.239C48.095 87.6897 47.575 88.0407 46.977 88.292C46.3876 88.5347 45.7463 88.656 45.053 88.656ZM45.053 87.473C45.5903 87.473 46.08 87.3777 46.522 87.187C46.964 86.9877 47.3453 86.7147 47.666 86.368C47.9953 86.0127 48.2466 85.6053 48.42 85.146C48.602 84.678 48.693 84.1797 48.693 83.651C48.693 83.1223 48.602 82.6283 48.42 82.169C48.2466 81.7097 47.9953 81.3067 47.666 80.96C47.3453 80.6047 46.964 80.3317 46.522 80.141C46.08 79.9417 45.5903 79.842 45.053 79.842C44.5243 79.842 44.039 79.9417 43.597 80.141C43.155 80.3317 42.7693 80.6047 42.44 80.96C42.1193 81.3067 41.868 81.7097 41.686 82.169C41.504 82.6283 41.413 83.1223 41.413 83.651C41.413 84.1797 41.504 84.678 41.686 85.146C41.868 85.6053 42.1193 86.0127 42.44 86.368C42.7693 86.7147 43.155 86.9877 43.597 87.187C44.039 87.3777 44.5243 87.473 45.053 87.473ZM51.5781 88.5V78.815H54.9971C55.6384 78.815 56.2017 78.9363 56.6871 79.179C57.1724 79.4217 57.5494 79.7683 57.8181 80.219C58.0954 80.6697 58.2341 81.1983 58.2341 81.805C58.2341 82.4897 58.0607 83.0703 57.7141 83.547C57.3674 84.0237 56.8994 84.366 56.3101 84.574L58.5591 88.5H57.0771L54.7111 84.301L55.5561 84.795H52.8521V88.5H51.5781ZM52.8521 83.625H55.0361C55.4174 83.625 55.7511 83.5513 56.0371 83.404C56.3231 83.2567 56.5441 83.0443 56.7001 82.767C56.8647 82.4897 56.9471 82.169 56.9471 81.805C56.9471 81.4323 56.8647 81.1117 56.7001 80.843C56.5441 80.5657 56.3231 80.3533 56.0371 80.206C55.7511 80.0587 55.4174 79.985 55.0361 79.985H52.8521V83.625ZM62.0388 88.5V84.067L58.6848 78.815H60.1278L62.9358 83.222H62.4158L65.2108 78.815H66.6538L63.3258 84.067V88.5H62.0388ZM10.936 103.5H17.371V101.94H12.704V99.418H17.111V97.858H12.704V95.375H17.371V93.815H10.936V103.5ZM17.6144 103.5H19.6424L21.7744 100.224L23.8934 103.5H25.9214L22.7624 98.625L25.8954 93.815H23.8674L21.7744 97.039L19.6684 93.815H17.6404L20.7864 98.625L17.6144 103.5ZM26.7422 103.5H28.5102V99.925H30.3562C32.3192 99.925 33.7232 98.807 33.7232 96.87C33.7232 94.907 32.3322 93.815 30.3562 93.815H26.7422V103.5ZM28.5102 98.365V95.375H30.3822C31.3312 95.375 31.9552 95.96 31.9552 96.87C31.9552 97.78 31.3312 98.365 30.3822 98.365H28.5102ZM34.9119 103.5H41.3469V101.94H36.6799V99.418H41.0869V97.858H36.6799V95.375H41.3469V93.815H34.9119V103.5ZM42.3833 103.5H44.1513V99.925H45.8153L47.8173 103.5H49.8193L47.5963 99.613C48.6753 99.171 49.3513 98.209 49.3513 96.87C49.3513 94.907 47.9603 93.815 45.9843 93.815H42.3833V103.5ZM44.1513 98.365V95.375H46.0103C46.9593 95.375 47.5833 95.96 47.5833 96.87C47.5833 97.78 46.9593 98.365 46.0103 98.365H44.1513ZM52.1801 103.5H53.9611V95.375H56.4311V93.815H49.6711V95.375H52.1801V103.5ZM58.5076 103.5H60.4186L61.1206 101.42H64.8646L65.5536 103.5H67.4776L64.1366 93.815H61.8486L58.5076 103.5ZM61.6276 99.86L62.9926 95.778L64.3576 99.86H61.6276ZM69.5819 103.5H71.6099L73.4689 96.532L75.3279 103.5H77.3559L79.9559 93.815H78.0579L76.2639 101.095L74.3919 93.815H72.5589L70.6739 101.095L68.8799 93.815H66.9819L69.5819 103.5ZM79.4553 103.5H81.3663L82.0683 101.42H85.8123L86.5013 103.5H88.4253L85.0843 93.815H82.7963L79.4553 103.5ZM82.5753 99.86L83.9403 95.778L85.3053 99.86H82.5753ZM89.2432 103.5H91.0112V99.925H92.6752L94.6772 103.5H96.6792L94.4562 99.613C95.5352 99.171 96.2112 98.209 96.2112 96.87C96.2112 94.907 94.8202 93.815 92.8442 93.815H89.2432V103.5ZM91.0112 98.365V95.375H92.8702C93.8192 95.375 94.4432 95.96 94.4432 96.87C94.4432 97.78 93.8192 98.365 92.8702 98.365H91.0112ZM97.578 103.5H100.737C103.805 103.5 105.794 101.485 105.794 98.651C105.794 95.804 103.818 93.815 100.737 93.815H97.578V103.5ZM99.346 101.94V95.375H100.776C102.739 95.375 104.013 96.649 104.013 98.651C104.013 100.653 102.752 101.94 100.776 101.94H99.346Z" fill="black"/>
<path d="M10.576 118.5H11.664V116.108H14.192V115.148H11.664V113.5H14.552V112.54H10.576V118.5ZM15.1035 118.5H16.1915V116.3H17.2155L18.4475 118.5H19.6795L18.3115 116.108C18.9755 115.836 19.3915 115.244 19.3915 114.42C19.3915 113.212 18.5355 112.54 17.3195 112.54H15.1035V118.5ZM16.1915 115.34V113.5H17.3355C17.9195 113.5 18.3035 113.86 18.3035 114.42C18.3035 114.98 17.9195 115.34 17.3355 115.34H16.1915ZM23.1686 118.596C24.9366 118.596 26.2886 117.276 26.2886 115.516C26.2886 113.756 24.9366 112.444 23.1686 112.444C21.4006 112.444 20.0566 113.756 20.0566 115.516C20.0566 117.276 21.4086 118.596 23.1686 118.596ZM23.1686 117.604C22.0086 117.604 21.1446 116.724 21.1446 115.516C21.1446 114.316 22.0086 113.436 23.1686 113.436C24.3286 113.436 25.1926 114.316 25.1926 115.516C25.1926 116.724 24.3286 117.604 23.1686 117.604ZM27.096 118.5H28.184V114.372L30.032 116.9H30.16L32 114.452V118.5H33.096V112.54H32.056L30.12 115.228L28.136 112.54H27.096V118.5ZM35.3385 118.5H36.4265V114.604L39.2585 118.5H40.1145V112.54H39.0265V116.364L36.1865 112.54H35.3385V118.5ZM40.6202 118.5H41.7962L42.2282 117.22H44.5322L44.9562 118.5H46.1402L44.0842 112.54H42.6762L40.6202 118.5ZM42.5402 116.26L43.3802 113.748L44.2202 116.26H42.5402ZM47.3011 118.5H48.3971V113.5H49.9171V112.54H45.7571V113.5H47.3011V118.5ZM50.421 118.5H51.509V112.54H50.421V118.5ZM55.4314 118.596C57.1994 118.596 58.5514 117.276 58.5514 115.516C58.5514 113.756 57.1994 112.444 55.4314 112.444C53.6634 112.444 52.3194 113.756 52.3194 115.516C52.3194 117.276 53.6714 118.596 55.4314 118.596ZM55.4314 117.604C54.2714 117.604 53.4074 116.724 53.4074 115.516C53.4074 114.316 54.2714 113.436 55.4314 113.436C56.5914 113.436 57.4554 114.316 57.4554 115.516C57.4554 116.724 56.5914 117.604 55.4314 117.604ZM59.3588 118.5H60.4468V114.604L63.2788 118.5H64.1348V112.54H63.0468V116.364L60.2068 112.54H59.3588V118.5ZM64.6405 118.5H65.8165L66.2485 117.22H68.5525L68.9765 118.5H70.1605L68.1045 112.54H66.6965L64.6405 118.5ZM66.5605 116.26L67.4005 113.748L68.2405 116.26H66.5605ZM70.6638 118.5H74.3038V117.54H71.7518V112.54H70.6638V118.5ZM12.704 127.596C13.928 127.596 14.776 126.876 14.776 125.852C14.776 125.052 14.304 124.508 13.352 124.204L12.256 123.86C11.824 123.724 11.608 123.46 11.608 123.132C11.608 122.692 11.976 122.396 12.528 122.396C13.144 122.396 13.64 122.74 13.872 123.332L14.768 122.932C14.448 122.036 13.6 121.444 12.528 121.444C11.352 121.444 10.536 122.156 10.536 123.18C10.536 123.964 11.008 124.548 11.936 124.844L13.08 125.212C13.496 125.348 13.704 125.564 13.704 125.916C13.704 126.356 13.328 126.644 12.76 126.644C12.08 126.644 11.504 126.236 11.216 125.548L10.312 125.94C10.632 126.932 11.568 127.596 12.704 127.596ZM15.5957 127.5H16.6837V123.372L18.5317 125.9H18.6597L20.4997 123.452V127.5H21.5957V121.54H20.5557L18.6197 124.228L16.6357 121.54H15.5957V127.5ZM22.0883 127.5H23.2643L23.6963 126.22H26.0003L26.4243 127.5H27.6083L25.5523 121.54H24.1443L22.0883 127.5ZM24.0083 125.26L24.8483 122.748L25.6883 125.26H24.0083ZM28.1116 127.5H29.1996V125.3H30.2236L31.4556 127.5H32.6876L31.3196 125.108C31.9836 124.836 32.3996 124.244 32.3996 123.42C32.3996 122.212 31.5436 121.54 30.3276 121.54H28.1116V127.5ZM29.1996 124.34V122.5H30.3436C30.9276 122.5 31.3116 122.86 31.3116 123.42C31.3116 123.98 30.9276 124.34 30.3436 124.34H29.1996ZM34.1404 127.5H35.2364V122.5H36.7564V121.54H32.5964V122.5H34.1404V127.5ZM38.5223 127.5H42.4823V126.54H39.6103V124.988H42.3223V124.028H39.6103V122.5H42.4823V121.54H38.5223V127.5ZM43.1201 127.5H45.0641C46.9521 127.5 48.1761 126.26 48.1761 124.516C48.1761 122.764 46.9601 121.54 45.0641 121.54H43.1201V127.5ZM44.2081 126.54V122.5H45.0881C46.2961 122.5 47.0801 123.284 47.0801 124.516C47.0801 125.748 46.3041 126.54 45.0881 126.54H44.2081ZM51.1779 127.596C52.5539 127.596 53.5379 126.652 53.5379 125.372V121.54H52.4499V125.316C52.4499 126.068 51.9219 126.604 51.1779 126.604C50.4339 126.604 49.9059 126.068 49.9059 125.316V121.54H48.8179V125.372C48.8179 126.652 49.8019 127.596 51.1779 127.596ZM57.2641 127.596C58.5361 127.596 59.4641 126.876 59.7761 126.028L58.8001 125.572C58.5681 126.172 58.0161 126.604 57.2641 126.604C56.1441 126.604 55.3761 125.764 55.3761 124.516C55.3761 123.276 56.1441 122.436 57.2641 122.436C58.0161 122.436 58.5681 122.868 58.8001 123.468L59.7761 123.012C59.4641 122.164 58.5361 121.444 57.2641 121.444C55.5521 121.444 54.2881 122.74 54.2881 124.516C54.2881 126.292 55.5601 127.596 57.2641 127.596ZM60.0114 127.5H61.1874L61.6194 126.22H63.9234L64.3474 127.5H65.5314L63.4754 121.54H62.0674L60.0114 127.5ZM61.9314 125.26L62.7714 122.748L63.6114 125.26H61.9314ZM66.0348 127.5H67.1228V125.3H68.1468L69.3788 127.5H70.6108L69.2428 125.108C69.9068 124.836 70.3228 124.244 70.3228 123.42C70.3228 122.212 69.4668 121.54 68.2508 121.54H66.0348V127.5ZM67.1228 124.34V122.5H68.2668C68.8508 122.5 69.2348 122.86 69.2348 123.42C69.2348 123.98 68.8508 124.34 68.2668 124.34H67.1228ZM71.1638 127.5H75.1238V126.54H72.2518V124.988H74.9638V124.028H72.2518V122.5H75.1238V121.54H71.1638V127.5Z" fill="black"/>
<defs>
<clipPath id="clip0_406_745">
<rect width="24" height="24" fill="white" transform="translate(10 15.5)"/>
</clipPath>
</defs>
</svg>
