<svg width="121" height="144" viewBox="0 0 121 144" fill="none" xmlns="http://www.w3.org/2000/svg">
<rect width="121" height="144" fill="#ECFFA1"/>
<path d="M22 29C25.866 29 29 25.866 29 22C29 18.134 25.866 15 22 15C18.134 15 15 18.134 15 22C15 25.866 18.134 29 22 29Z" stroke="black" stroke-width="2" stroke-linecap="round" stroke-linejoin="round"/>
<path d="M18.21 27.89L17 37L22 34L27 37L25.79 27.88" stroke="black" stroke-width="2" stroke-linecap="round" stroke-linejoin="round"/>
<path d="M10.936 83H12.704V73.315H10.936V83ZM14.3069 83H16.0749V76.669L20.6769 83H22.0679V73.315H20.2999V79.529L15.6849 73.315H14.3069V83ZM23.6826 83H26.8416C29.9096 83 31.8986 80.985 31.8986 78.151C31.8986 75.304 29.9226 73.315 26.8416 73.315H23.6826V83ZM25.4506 81.44V74.875H26.8806C28.8436 74.875 30.1176 76.149 30.1176 78.151C30.1176 80.153 28.8566 81.44 26.8806 81.44H25.4506ZM33.0456 83H34.8136V73.315H33.0456V83ZM35.6235 83H37.5345L38.2365 80.92H41.9805L42.6695 83H44.5935L41.2525 73.315H38.9645L35.6235 83ZM38.7435 79.36L40.1085 75.278L41.4735 79.36H38.7435ZM46.6689 83H48.5799L49.2819 80.92H53.0259L53.7149 83H55.6389L52.2979 73.315H50.0099L46.6689 83ZM49.7889 79.36L51.1539 75.278L52.5189 79.36H49.7889ZM56.4568 83H58.2248V76.669L62.8268 83H64.2178V73.315H62.4498V79.529L57.8348 73.315H56.4568V83ZM65.8326 83H68.9916C72.0596 83 74.0486 80.985 74.0486 78.151C74.0486 75.304 72.0726 73.315 68.9916 73.315H65.8326V83ZM67.6006 81.44V74.875H69.0306C70.9936 74.875 72.2676 76.149 72.2676 78.151C72.2676 80.153 71.0066 81.44 69.0306 81.44H67.6006ZM76.4532 83H78.3642L79.0662 80.92H82.8102L83.4992 83H85.4232L82.0822 73.315H79.7942L76.4532 83ZM79.5732 79.36L80.9382 75.278L82.3032 79.36H79.5732ZM89.5721 83.156C91.5611 83.156 92.9391 81.986 92.9391 80.322C92.9391 79.022 92.1721 78.138 90.6251 77.644L88.8441 77.085C88.1421 76.864 87.7911 76.435 87.7911 75.902C87.7911 75.187 88.3891 74.706 89.2861 74.706C90.2871 74.706 91.0931 75.265 91.4701 76.227L92.9261 75.577C92.4061 74.121 91.0281 73.159 89.2861 73.159C87.3751 73.159 86.0491 74.316 86.0491 75.98C86.0491 77.254 86.8161 78.203 88.3241 78.684L90.1831 79.282C90.8591 79.503 91.1971 79.854 91.1971 80.426C91.1971 81.141 90.5861 81.609 89.6631 81.609C88.5581 81.609 87.6221 80.946 87.1541 79.828L85.6851 80.465C86.2051 82.077 87.7261 83.156 89.5721 83.156ZM94.2711 83H96.0391V73.315H94.2711V83ZM96.8489 83H98.7599L99.4619 80.92H103.206L103.895 83H105.819L102.478 73.315H100.19L96.8489 83ZM99.9689 79.36L101.334 75.278L102.699 79.36H99.9689ZM11.079 98V88.315H15.148C15.7287 88.315 16.227 88.419 16.643 88.627C17.0677 88.835 17.3927 89.1297 17.618 89.511C17.852 89.8837 17.969 90.33 17.969 90.85C17.969 91.3267 17.8433 91.76 17.592 92.15C17.3493 92.5313 16.9897 92.8303 16.513 93.047L16.5 92.566C16.916 92.722 17.2583 92.93 17.527 93.19C17.8043 93.4413 18.0123 93.736 18.151 94.074C18.2897 94.4033 18.359 94.7543 18.359 95.127C18.359 96.0197 18.073 96.7217 17.501 97.233C16.929 97.7443 16.149 98 15.161 98H11.079ZM12.353 96.83H15.213C15.7763 96.83 16.227 96.6783 16.565 96.375C16.903 96.0717 17.072 95.66 17.072 95.14C17.072 94.62 16.903 94.2083 16.565 93.905C16.227 93.593 15.7763 93.437 15.213 93.437H12.353V96.83ZM12.353 92.293H15.122C15.59 92.293 15.967 92.1587 16.253 91.89C16.539 91.6127 16.682 91.2617 16.682 90.837C16.682 90.395 16.539 90.057 16.253 89.823C15.967 89.589 15.59 89.472 15.122 89.472H12.353V92.293ZM24.448 98.156C23.7633 98.156 23.122 98.0347 22.524 97.792C21.926 97.5407 21.4016 97.1897 20.951 96.739C20.509 96.2883 20.1623 95.7597 19.911 95.153C19.6596 94.5377 19.534 93.8703 19.534 93.151C19.534 92.423 19.6596 91.7557 19.911 91.149C20.1623 90.5423 20.509 90.0137 20.951 89.563C21.4016 89.1123 21.9216 88.7657 22.511 88.523C23.109 88.2803 23.7546 88.159 24.448 88.159C25.1413 88.159 25.7826 88.2847 26.372 88.536C26.97 88.7787 27.49 89.1253 27.932 89.576C28.3826 90.018 28.7336 90.5423 28.985 91.149C29.245 91.7557 29.375 92.423 29.375 93.151C29.375 93.8703 29.245 94.5377 28.985 95.153C28.7336 95.7597 28.3826 96.2883 27.932 96.739C27.49 97.1897 26.97 97.5407 26.372 97.792C25.7826 98.0347 25.1413 98.156 24.448 98.156ZM24.448 96.973C24.9853 96.973 25.475 96.8777 25.917 96.687C26.359 96.4877 26.7403 96.2147 27.061 95.868C27.3903 95.5127 27.6416 95.1053 27.815 94.646C27.997 94.178 28.088 93.6797 28.088 93.151C28.088 92.6223 27.997 92.1283 27.815 91.669C27.6416 91.2097 27.3903 90.8067 27.061 90.46C26.7403 90.1047 26.359 89.8317 25.917 89.641C25.475 89.4417 24.9853 89.342 24.448 89.342C23.9193 89.342 23.434 89.4417 22.992 89.641C22.55 89.8317 22.1643 90.1047 21.835 90.46C21.5143 90.8067 21.263 91.2097 21.081 91.669C20.899 92.1283 20.808 92.6223 20.808 93.151C20.808 93.6797 20.899 94.178 21.081 94.646C21.263 95.1053 21.5143 95.5127 21.835 95.868C22.1643 96.2147 22.55 96.4877 22.992 96.687C23.434 96.8777 23.9193 96.973 24.448 96.973ZM35.6011 98.156C34.9164 98.156 34.2751 98.0347 33.6771 97.792C33.0791 97.5407 32.5547 97.1897 32.1041 96.739C31.6621 96.2883 31.3154 95.7597 31.0641 95.153C30.8127 94.5377 30.6871 93.8703 30.6871 93.151C30.6871 92.423 30.8127 91.7557 31.0641 91.149C31.3154 90.5423 31.6621 90.0137 32.1041 89.563C32.5547 89.1123 33.0747 88.7657 33.6641 88.523C34.2621 88.2803 34.9077 88.159 35.6011 88.159C36.2944 88.159 36.9357 88.2847 37.5251 88.536C38.1231 88.7787 38.6431 89.1253 39.0851 89.576C39.5357 90.018 39.8867 90.5423 40.1381 91.149C40.3981 91.7557 40.5281 92.423 40.5281 93.151C40.5281 93.8703 40.3981 94.5377 40.1381 95.153C39.8867 95.7597 39.5357 96.2883 39.0851 96.739C38.6431 97.1897 38.1231 97.5407 37.5251 97.792C36.9357 98.0347 36.2944 98.156 35.6011 98.156ZM35.6011 96.973C36.1384 96.973 36.6281 96.8777 37.0701 96.687C37.5121 96.4877 37.8934 96.2147 38.2141 95.868C38.5434 95.5127 38.7947 95.1053 38.9681 94.646C39.1501 94.178 39.2411 93.6797 39.2411 93.151C39.2411 92.6223 39.1501 92.1283 38.9681 91.669C38.7947 91.2097 38.5434 90.8067 38.2141 90.46C37.8934 90.1047 37.5121 89.8317 37.0701 89.641C36.6281 89.4417 36.1384 89.342 35.6011 89.342C35.0724 89.342 34.5871 89.4417 34.1451 89.641C33.7031 89.8317 33.3174 90.1047 32.9881 90.46C32.6674 90.8067 32.4161 91.2097 32.2341 91.669C32.0521 92.1283 31.9611 92.6223 31.9611 93.151C31.9611 93.6797 32.0521 94.178 32.2341 94.646C32.4161 95.1053 32.6674 95.5127 32.9881 95.868C33.3174 96.2147 33.7031 96.4877 34.1451 96.687C34.5871 96.8777 35.0724 96.973 35.6011 96.973ZM42.1261 98V88.315H43.4001V93.762L43.0881 93.632L47.7161 88.315H49.3151L45.4281 92.8L45.4931 91.89L49.5101 98H47.9891L44.9211 93.398L43.4001 95.14V98H42.1261ZM57.0886 98.156C56.404 98.156 55.7626 98.0347 55.1646 97.792C54.5666 97.5407 54.0423 97.1897 53.5916 96.739C53.1496 96.2883 52.803 95.7597 52.5516 95.153C52.3003 94.5377 52.1746 93.8703 52.1746 93.151C52.1746 92.423 52.3003 91.7557 52.5516 91.149C52.803 90.5423 53.1496 90.0137 53.5916 89.563C54.0423 89.1123 54.5623 88.7657 55.1516 88.523C55.7496 88.2803 56.3953 88.159 57.0886 88.159C57.782 88.159 58.4233 88.2847 59.0126 88.536C59.6106 88.7787 60.1306 89.1253 60.5726 89.576C61.0233 90.018 61.3743 90.5423 61.6256 91.149C61.8856 91.7557 62.0156 92.423 62.0156 93.151C62.0156 93.8703 61.8856 94.5377 61.6256 95.153C61.3743 95.7597 61.0233 96.2883 60.5726 96.739C60.1306 97.1897 59.6106 97.5407 59.0126 97.792C58.4233 98.0347 57.782 98.156 57.0886 98.156ZM57.0886 96.973C57.626 96.973 58.1156 96.8777 58.5576 96.687C58.9996 96.4877 59.381 96.2147 59.7016 95.868C60.031 95.5127 60.2823 95.1053 60.4556 94.646C60.6376 94.178 60.7286 93.6797 60.7286 93.151C60.7286 92.6223 60.6376 92.1283 60.4556 91.669C60.2823 91.2097 60.031 90.8067 59.7016 90.46C59.381 90.1047 58.9996 89.8317 58.5576 89.641C58.1156 89.4417 57.626 89.342 57.0886 89.342C56.56 89.342 56.0746 89.4417 55.6326 89.641C55.1906 89.8317 54.805 90.1047 54.4756 90.46C54.155 90.8067 53.9036 91.2097 53.7216 91.669C53.5396 92.1283 53.4486 92.6223 53.4486 93.151C53.4486 93.6797 53.5396 94.178 53.7216 94.646C53.9036 95.1053 54.155 95.5127 54.4756 95.868C54.805 96.2147 55.1906 96.4877 55.6326 96.687C56.0746 96.8777 56.56 96.973 57.0886 96.973ZM63.6137 98V88.315H69.7497V89.485H64.8877V92.618H69.2947V93.788H64.8877V98H63.6137ZM11.079 113V103.315H14.498C15.1393 103.315 15.7027 103.436 16.188 103.679C16.6733 103.922 17.0503 104.268 17.319 104.719C17.5963 105.17 17.735 105.698 17.735 106.305C17.735 106.99 17.5617 107.57 17.215 108.047C16.8683 108.524 16.4003 108.866 15.811 109.074L18.06 113H16.578L14.212 108.801L15.057 109.295H12.353V113H11.079ZM12.353 108.125H14.537C14.9183 108.125 15.252 108.051 15.538 107.904C15.824 107.757 16.045 107.544 16.201 107.267C16.3657 106.99 16.448 106.669 16.448 106.305C16.448 105.932 16.3657 105.612 16.201 105.343C16.045 105.066 15.824 104.853 15.538 104.706C15.252 104.559 14.9183 104.485 14.537 104.485H12.353V108.125ZM19.2487 113V103.315H25.5537V104.485H20.5227V107.553H25.2937V108.723H20.5227V111.83H25.5537V113H19.2487ZM31.3315 113.156C30.6468 113.156 30.0141 113.035 29.4335 112.792C28.8615 112.541 28.3588 112.19 27.9255 111.739C27.5008 111.288 27.1715 110.76 26.9375 110.153C26.7035 109.546 26.5865 108.883 26.5865 108.164C26.5865 107.436 26.7035 106.769 26.9375 106.162C27.1715 105.555 27.5008 105.027 27.9255 104.576C28.3501 104.125 28.8528 103.779 29.4335 103.536C30.0141 103.285 30.6468 103.159 31.3315 103.159C31.9988 103.159 32.5968 103.276 33.1255 103.51C33.6628 103.744 34.1135 104.047 34.4775 104.42C34.8501 104.793 35.1145 105.191 35.2705 105.616L34.1005 106.149C33.8751 105.612 33.5241 105.178 33.0475 104.849C32.5708 104.511 31.9988 104.342 31.3315 104.342C30.6555 104.342 30.0531 104.502 29.5245 104.823C29.0045 105.144 28.5971 105.59 28.3025 106.162C28.0078 106.734 27.8605 107.401 27.8605 108.164C27.8605 108.918 28.0078 109.581 28.3025 110.153C28.5971 110.725 29.0045 111.171 29.5245 111.492C30.0531 111.813 30.6555 111.973 31.3315 111.973C31.9988 111.973 32.5708 111.808 33.0475 111.479C33.5241 111.141 33.8751 110.703 34.1005 110.166L35.2705 110.699C35.1145 111.124 34.8501 111.522 34.4775 111.895C34.1135 112.268 33.6628 112.571 33.1255 112.805C32.5968 113.039 31.9988 113.156 31.3315 113.156ZM41.3713 113.156C40.6867 113.156 40.0453 113.035 39.4473 112.792C38.8493 112.541 38.325 112.19 37.8743 111.739C37.4323 111.288 37.0857 110.76 36.8343 110.153C36.583 109.538 36.4573 108.87 36.4573 108.151C36.4573 107.423 36.583 106.756 36.8343 106.149C37.0857 105.542 37.4323 105.014 37.8743 104.563C38.325 104.112 38.845 103.766 39.4343 103.523C40.0323 103.28 40.678 103.159 41.3713 103.159C42.0647 103.159 42.706 103.285 43.2953 103.536C43.8933 103.779 44.4133 104.125 44.8553 104.576C45.306 105.018 45.657 105.542 45.9083 106.149C46.1683 106.756 46.2983 107.423 46.2983 108.151C46.2983 108.87 46.1683 109.538 45.9083 110.153C45.657 110.76 45.306 111.288 44.8553 111.739C44.4133 112.19 43.8933 112.541 43.2953 112.792C42.706 113.035 42.0647 113.156 41.3713 113.156ZM41.3713 111.973C41.9087 111.973 42.3983 111.878 42.8403 111.687C43.2823 111.488 43.6637 111.215 43.9843 110.868C44.3137 110.513 44.565 110.105 44.7383 109.646C44.9203 109.178 45.0113 108.68 45.0113 108.151C45.0113 107.622 44.9203 107.128 44.7383 106.669C44.565 106.21 44.3137 105.807 43.9843 105.46C43.6637 105.105 43.2823 104.832 42.8403 104.641C42.3983 104.442 41.9087 104.342 41.3713 104.342C40.8427 104.342 40.3573 104.442 39.9153 104.641C39.4733 104.832 39.0877 105.105 38.7583 105.46C38.4377 105.807 38.1863 106.21 38.0043 106.669C37.8223 107.128 37.7313 107.622 37.7313 108.151C37.7313 108.68 37.8223 109.178 38.0043 109.646C38.1863 110.105 38.4377 110.513 38.7583 110.868C39.0877 111.215 39.4733 111.488 39.9153 111.687C40.3573 111.878 40.8427 111.973 41.3713 111.973ZM47.8964 113V103.315H51.3154C51.9568 103.315 52.5201 103.436 53.0054 103.679C53.4908 103.922 53.8678 104.268 54.1364 104.719C54.4138 105.17 54.5524 105.698 54.5524 106.305C54.5524 106.99 54.3791 107.57 54.0324 108.047C53.6858 108.524 53.2178 108.866 52.6284 109.074L54.8774 113H53.3954L51.0294 108.801L51.8744 109.295H49.1704V113H47.8964ZM49.1704 108.125H51.3544C51.7358 108.125 52.0694 108.051 52.3554 107.904C52.6414 107.757 52.8624 107.544 53.0184 107.267C53.1831 106.99 53.2654 106.669 53.2654 106.305C53.2654 105.932 53.1831 105.612 53.0184 105.343C52.8624 105.066 52.6414 104.853 52.3554 104.706C52.0694 104.559 51.7358 104.485 51.3544 104.485H49.1704V108.125ZM56.0661 113V103.315H59.2381C60.2174 103.315 61.0711 103.514 61.7991 103.913C62.5271 104.312 63.0904 104.875 63.4891 105.603C63.8878 106.322 64.0871 107.172 64.0871 108.151C64.0871 109.122 63.8878 109.971 63.4891 110.699C63.0904 111.427 62.5271 111.995 61.7991 112.402C61.0711 112.801 60.2174 113 59.2381 113H56.0661ZM57.3401 111.83H59.2511C59.9704 111.83 60.5901 111.678 61.1101 111.375C61.6388 111.072 62.0461 110.647 62.3321 110.101C62.6181 109.546 62.7611 108.896 62.7611 108.151C62.7611 107.397 62.6138 106.747 62.3191 106.201C62.0331 105.655 61.6258 105.235 61.0971 104.94C60.5771 104.637 59.9618 104.485 59.2511 104.485H57.3401V111.83ZM11.079 128V118.315H12.353V122.631H17.202V118.315H18.489V128H17.202V123.801H12.353V128H11.079ZM25.0066 128.156C24.3219 128.156 23.6806 128.035 23.0826 127.792C22.4846 127.541 21.9602 127.19 21.5096 126.739C21.0676 126.288 20.7209 125.76 20.4696 125.153C20.2182 124.538 20.0926 123.87 20.0926 123.151C20.0926 122.423 20.2182 121.756 20.4696 121.149C20.7209 120.542 21.0676 120.014 21.5096 119.563C21.9602 119.112 22.4802 118.766 23.0696 118.523C23.6676 118.28 24.3132 118.159 25.0066 118.159C25.6999 118.159 26.3412 118.285 26.9306 118.536C27.5286 118.779 28.0486 119.125 28.4906 119.576C28.9412 120.018 29.2922 120.542 29.5436 121.149C29.8036 121.756 29.9336 122.423 29.9336 123.151C29.9336 123.87 29.8036 124.538 29.5436 125.153C29.2922 125.76 28.9412 126.288 28.4906 126.739C28.0486 127.19 27.5286 127.541 26.9306 127.792C26.3412 128.035 25.6999 128.156 25.0066 128.156ZM25.0066 126.973C25.5439 126.973 26.0336 126.878 26.4756 126.687C26.9176 126.488 27.2989 126.215 27.6196 125.868C27.9489 125.513 28.2002 125.105 28.3736 124.646C28.5556 124.178 28.6466 123.68 28.6466 123.151C28.6466 122.622 28.5556 122.128 28.3736 121.669C28.2002 121.21 27.9489 120.807 27.6196 120.46C27.2989 120.105 26.9176 119.832 26.4756 119.641C26.0336 119.442 25.5439 119.342 25.0066 119.342C24.4779 119.342 23.9926 119.442 23.5506 119.641C23.1086 119.832 22.7229 120.105 22.3936 120.46C22.0729 120.807 21.8216 121.21 21.6396 121.669C21.4576 122.128 21.3666 122.622 21.3666 123.151C21.3666 123.68 21.4576 124.178 21.6396 124.646C21.8216 125.105 22.0729 125.513 22.3936 125.868C22.7229 126.215 23.1086 126.488 23.5506 126.687C23.9926 126.878 24.4779 126.973 25.0066 126.973ZM31.5317 128V118.315H32.8057V126.83H37.0567V128H31.5317ZM38.2287 128V118.315H41.4007C42.38 118.315 43.2337 118.514 43.9617 118.913C44.6897 119.312 45.253 119.875 45.6517 120.603C46.0504 121.322 46.2497 122.172 46.2497 123.151C46.2497 124.122 46.0504 124.971 45.6517 125.699C45.253 126.427 44.6897 126.995 43.9617 127.402C43.2337 127.801 42.38 128 41.4007 128H38.2287ZM39.5027 126.83H41.4137C42.133 126.83 42.7527 126.678 43.2727 126.375C43.8014 126.072 44.2087 125.647 44.4947 125.101C44.7807 124.546 44.9237 123.896 44.9237 123.151C44.9237 122.397 44.7764 121.747 44.4817 121.201C44.1957 120.655 43.7884 120.235 43.2597 119.94C42.7397 119.637 42.1244 119.485 41.4137 119.485H39.5027V126.83ZM47.6044 128V118.315H53.9094V119.485H48.8784V122.553H53.6494V123.723H48.8784V126.83H53.9094V128H47.6044ZM55.2282 128V118.315H58.6472C59.2886 118.315 59.8519 118.436 60.3372 118.679C60.8226 118.922 61.1996 119.268 61.4682 119.719C61.7456 120.17 61.8842 120.698 61.8842 121.305C61.8842 121.99 61.7109 122.57 61.3642 123.047C61.0176 123.524 60.5496 123.866 59.9602 124.074L62.2092 128H60.7272L58.3612 123.801L59.2062 124.295H56.5022V128H55.2282ZM56.5022 123.125H58.6862C59.0676 123.125 59.4012 123.051 59.6872 122.904C59.9732 122.757 60.1942 122.544 60.3502 122.267C60.5149 121.99 60.5972 121.669 60.5972 121.305C60.5972 120.932 60.5149 120.612 60.3502 120.343C60.1942 120.066 59.9732 119.853 59.6872 119.706C59.4012 119.559 59.0676 119.485 58.6862 119.485H56.5022V123.125Z" fill="black"/>
</svg>
