<svg width="121" height="144" viewBox="0 0 121 144" fill="none" xmlns="http://www.w3.org/2000/svg">
<rect width="121" height="144" fill="#E9F6FF"/>
<path d="M22 31C25.866 31 29 27.866 29 24C29 20.134 25.866 17 22 17C18.134 17 15 20.134 15 24C15 27.866 18.134 31 22 31Z" stroke="black" stroke-width="2" stroke-linecap="round" stroke-linejoin="round"/>
<path d="M18.21 29.89L17 39L22 36L27 39L25.79 29.88" stroke="black" stroke-width="2" stroke-linecap="round" stroke-linejoin="round"/>
<path d="M10.936 111H17.371V109.44H12.704V106.918H17.111V105.358H12.704V102.875H17.371V101.315H10.936V111ZM18.4074 111H21.5664C24.6344 111 26.6234 108.985 26.6234 106.151C26.6234 103.304 24.6474 101.315 21.5664 101.315H18.4074V111ZM20.1754 109.44V102.875H21.6054C23.5684 102.875 24.8424 104.149 24.8424 106.151C24.8424 108.153 23.5814 109.44 21.6054 109.44H20.1754ZM31.5015 111.156C33.7375 111.156 35.3365 109.622 35.3365 107.542V101.315H33.5685V107.451C33.5685 108.673 32.7105 109.544 31.5015 109.544C30.2925 109.544 29.4345 108.673 29.4345 107.451V101.315H27.6665V107.542C27.6665 109.622 29.2655 111.156 31.5015 111.156ZM36.8415 111H38.6095V107.425H40.4555C42.4185 107.425 43.8225 106.307 43.8225 104.37C43.8225 102.407 42.4315 101.315 40.4555 101.315H36.8415V111ZM38.6095 105.865V102.875H40.4815C41.4305 102.875 42.0545 103.46 42.0545 104.37C42.0545 105.28 41.4305 105.865 40.4815 105.865H38.6095ZM45.0112 111H46.7792V107.425H48.4432L50.4452 111H52.4472L50.2242 107.113C51.3032 106.671 51.9792 105.709 51.9792 104.37C51.9792 102.407 50.5882 101.315 48.6122 101.315H45.0112V111ZM46.7792 105.865V102.875H48.6382C49.5872 102.875 50.2112 103.46 50.2112 104.37C50.2112 105.28 49.5872 105.865 48.6382 105.865H46.7792ZM53.346 111H59.781V109.44H55.114V106.918H59.521V105.358H55.114V102.875H59.781V101.315H53.346V111ZM60.8174 111H62.5854V104.669L67.1874 111H68.5784V101.315H66.8104V107.529L62.1954 101.315H60.8174V111ZM70.1931 111H76.6281V109.44H71.9611V106.918H76.3681V105.358H71.9611V102.875H76.6281V101.315H70.1931V111ZM81.3956 111.156C83.6316 111.156 85.2306 109.622 85.2306 107.542V101.315H83.4626V107.451C83.4626 108.673 82.6046 109.544 81.3956 109.544C80.1866 109.544 79.3286 108.673 79.3286 107.451V101.315H77.5606V107.542C77.5606 109.622 79.1596 111.156 81.3956 111.156ZM86.7357 111H88.5037V107.425H90.1677L92.1697 111H94.1717L91.9487 107.113C93.0277 106.671 93.7037 105.709 93.7037 104.37C93.7037 102.407 92.3127 101.315 90.3367 101.315H86.7357V111ZM88.5037 105.865V102.875H90.3627C91.3117 102.875 91.9357 103.46 91.9357 104.37C91.9357 105.28 91.3117 105.865 90.3627 105.865H88.5037ZM10.143 126L13.614 116.315H15.122L18.593 126H17.228L16.435 123.725H12.301L11.508 126H10.143ZM12.704 122.555H16.032L14.186 117.238H14.55L12.704 122.555ZM20.8139 126L18.0969 116.315H19.4359L21.7109 124.843H21.3989L23.7649 116.315H25.1039L27.4569 124.843H27.1319L29.4199 116.315H30.7589L28.0419 126H26.6249L24.2589 117.511H24.5969L22.2309 126H20.8139ZM30.2656 126L33.7366 116.315H35.2446L38.7156 126H37.3506L36.5576 123.725H32.4236L31.6306 126H30.2656ZM32.8266 122.555H36.1546L34.3086 117.238H34.6726L32.8266 122.555ZM39.676 126V116.315H43.095C43.7363 116.315 44.2996 116.436 44.785 116.679C45.2703 116.922 45.6473 117.268 45.916 117.719C46.1933 118.17 46.332 118.698 46.332 119.305C46.332 119.99 46.1586 120.57 45.812 121.047C45.4653 121.524 44.9973 121.866 44.408 122.074L46.657 126H45.175L42.809 121.801L43.654 122.295H40.95V126H39.676ZM40.95 121.125H43.134C43.5153 121.125 43.849 121.051 44.135 120.904C44.421 120.757 44.642 120.544 44.798 120.267C44.9626 119.99 45.045 119.669 45.045 119.305C45.045 118.932 44.9626 118.612 44.798 118.343C44.642 118.066 44.421 117.853 44.135 117.706C43.849 117.559 43.5153 117.485 43.134 117.485H40.95V121.125ZM47.8456 126V116.315H51.0176C51.997 116.315 52.8506 116.514 53.5786 116.913C54.3066 117.312 54.87 117.875 55.2686 118.603C55.6673 119.322 55.8666 120.172 55.8666 121.151C55.8666 122.122 55.6673 122.971 55.2686 123.699C54.87 124.427 54.3066 124.995 53.5786 125.402C52.8506 125.801 51.997 126 51.0176 126H47.8456ZM49.1196 124.83H51.0306C51.75 124.83 52.3696 124.678 52.8896 124.375C53.4183 124.072 53.8256 123.647 54.1116 123.101C54.3976 122.546 54.5406 121.896 54.5406 121.151C54.5406 120.397 54.3933 119.747 54.0986 119.201C53.8126 118.655 53.4053 118.235 52.8766 117.94C52.3566 117.637 51.7413 117.485 51.0306 117.485H49.1196V124.83Z" fill="black"/>
</svg>
